<svg id="Layer_1" data-name="Layer 1" xmlns="http://www.w3.org/2000/svg" viewBox="0 0 52.01 52.83"><defs><style>.cls-1{fill:#fff;}</style></defs><title>Access</title><g id="key"><g id="Group_9" data-name="Group 9"><g id="Group_8" data-name="Group 8"><path id="Path_9" data-name="Path 9" class="cls-1" d="M579.17,354.23a17.86,17.86,0,0,0-17.86,17.88,17.68,17.68,0,0,0,1.16,6.31L545.39,395.5a1.3,1.3,0,0,0-.38.92v9.34a1.3,1.3,0,0,0,1.3,1.3H554a1.28,1.28,0,0,0,.92-.38l2.59-2.59a1.27,1.27,0,0,0,.39-.92V400h3.18a1.3,1.3,0,0,0,1.3-1.3v-1.27h1.27a1.3,1.3,0,0,0,1.3-1.3v-2.8h2.8a1.3,1.3,0,0,0,.92-.38l4.14-4.14a17.86,17.86,0,1,0,6.35-34.56Zm0,33.11a15.21,15.21,0,0,1-6.13-1.28,1.31,1.31,0,0,0-1.43.26h0l-4.37,4.37h-3.56a1.3,1.3,0,0,0-1.3,1.3v2.8h-1.28a1.3,1.3,0,0,0-1.3,1.3v1.28h-3.18a1.3,1.3,0,0,0-1.3,1.3v3.95l-1.84,1.83h-5.86v-1.84l15.91-15.9a1.17,1.17,0,1,0-1.66-1.66h0l-14.25,14.25V397l17.31-17.31h0a1.31,1.31,0,0,0,.26-1.43,15.27,15.27,0,1,1,14,9.13Z" transform="translate(-545.01 -354.23)"/></g></g><g id="Group_11" data-name="Group 11"><g id="Group_10" data-name="Group 10"><path id="Path_10" data-name="Path 10" class="cls-1" d="M584.6,361.78a4.88,4.88,0,1,0,4.88,4.87A4.87,4.87,0,0,0,584.6,361.78Zm0,7.14a2.27,2.27,0,1,1,2.27-2.27A2.27,2.27,0,0,1,584.6,368.92Z" transform="translate(-545.01 -354.23)"/></g></g></g></svg>