<svg id="Layer_1" data-name="Layer 1" xmlns="http://www.w3.org/2000/svg" viewBox="0 0 50 50"><defs><style>.cls-1{fill:#fff;}</style></defs><title>Freedom</title><path id="Path_7" data-name="Path 7" class="cls-1" d="M560.47,374.23a1.49,1.49,0,0,0,.32,1.6l3,3a11.43,11.43,0,0,0,19.1-5.23l.8-3.18h1.78a1.47,1.47,0,0,0,1.47-1.47v-2.24a5.08,5.08,0,0,0-9.61-2.32,13.51,13.51,0,0,0-12.56-8.72H558.9a1.46,1.46,0,0,0-1.47,1.46,1.5,1.5,0,0,0,.43,1,7.12,7.12,0,0,1,2.5,5.34,9,9,0,0,0,6.17,8.55l.6.19a13.44,13.44,0,0,1-5.3,1.09A1.48,1.48,0,0,0,560.47,374.23Zm11.06-1.15a1.47,1.47,0,0,0,.4-2,1.52,1.52,0,0,0-.76-.58l-3.73-1.21a6.05,6.05,0,0,1-4.15-5.75,9.85,9.85,0,0,0-1.31-4.92h2.78a10.54,10.54,0,0,1,10.45,10.35,1.46,1.46,0,0,0,2.77.65l1.93-3.86a2.16,2.16,0,0,1,4.09,1v.77h-1.47a1.47,1.47,0,0,0-1.42,1.11L580,372.86a8.5,8.5,0,0,1-14.18,3.88l-.81-.81A16.88,16.88,0,0,0,571.53,373.08Z" transform="translate(-547.18 -355.65)"/><path id="Path_8" data-name="Path 8" class="cls-1" d="M592.78,370.39a4.4,4.4,0,0,0-4.39,4.4v8.79a1.44,1.44,0,0,1-.43,1,4.4,4.4,0,0,0-5.87-2.06,4.55,4.55,0,0,0-1.2.84l-8,7.94a7.17,7.17,0,0,0-.68.78,7.36,7.36,0,0,0-.69-.79l-8-7.92a4.39,4.39,0,0,0-6.22,0,4.22,4.22,0,0,0-.85,1.2,1.46,1.46,0,0,1-.43-1v-8.78a4.4,4.4,0,0,0-8.79,0v13a7.35,7.35,0,0,0,1,3.77c.12.19-.59-.69,11.37,13.54a1.44,1.44,0,0,0,1.12.52h22.94a1.47,1.47,0,0,0,1.12-.52c11.92-14.19,11.25-13.35,11.36-13.54a7.27,7.27,0,0,0,1-3.77v-13A4.4,4.4,0,0,0,592.78,370.39Zm-22.07,32.33h-9.32L550.68,390a4.34,4.34,0,0,1-.57-2.17v-13a1.47,1.47,0,1,1,2.93,0v8.79a4.35,4.35,0,0,0,1.28,3.1l7.93,7.93a1.47,1.47,0,0,0,2.08-2.07l-5-5a1.46,1.46,0,1,1,2-2.1l0,0,8,7.92a4.35,4.35,0,0,1,1.28,3.11v6.21Zm23.54-14.9a4.41,4.41,0,0,1-.57,2.16L583,402.72h-9.33v-6.21a4.37,4.37,0,0,1,1.28-3.1l8-7.94a1.46,1.46,0,0,1,2.07,2.07l-5,5a1.47,1.47,0,0,0,0,2.07,1.45,1.45,0,0,0,2.07,0l7.93-7.93a4.36,4.36,0,0,0,1.29-3.1v-8.79a1.47,1.47,0,1,1,2.93,0Z" transform="translate(-547.18 -355.65)"/></svg>