<svg id="Layer_1" data-name="Layer 1" xmlns="http://www.w3.org/2000/svg" viewBox="0 0 43.19 43.19"><defs><style>.cls-1{fill:#fff;}</style></defs><title>Githublist</title><path id="github" class="cls-1" d="M731.59,376.64a21.6,21.6,0,1,0,21.59,21.68A21.59,21.59,0,0,0,731.59,376.64Zm3.8,40.28a19.39,19.39,0,0,1-7.59,0V411a3.57,3.57,0,0,1,.88-2.6,25.23,25.23,0,0,0,1.57-2.3l-2-.3c-5-.74-7-3.34-7.76-5.37a8.59,8.59,0,0,1,1.34-8.25,1.52,1.52,0,0,0,.3-1.46,7.45,7.45,0,0,1-.08-3.72,11.32,11.32,0,0,1,3.87,1.84,1.89,1.89,0,0,0,1.07.26,17.72,17.72,0,0,1,4.58-.66,15.42,15.42,0,0,1,4.22.6,1.78,1.78,0,0,0,1.37-.2,11.32,11.32,0,0,1,3.87-1.84,7.45,7.45,0,0,1-.08,3.72,1.54,1.54,0,0,0,.3,1.47,8.59,8.59,0,0,1,1.34,8.24c-.78,2-2.75,4.64-7.77,5.37l-1.94.3a25.23,25.23,0,0,0,1.57,2.3,3.64,3.64,0,0,1,.88,2.61Zm2.53-.74V411a6.13,6.13,0,0,0-.71-3.11c3.84-1,6.58-3.31,7.79-6.58a11.12,11.12,0,0,0-1.45-10.37c.38-1.7.38-4.4-.53-5.67a2,2,0,0,0-1.67-.86h0c-2,.11-3.51,1.09-5.16,2.1a17.42,17.42,0,0,0-9.14,0c-1.74-1.05-3.27-2-5.29-2.1a2,2,0,0,0-1.59.86c-.91,1.26-.91,4-.53,5.67a11.11,11.11,0,0,0-1.44,10.37c1.21,3.27,4,5.54,7.79,6.58a5.6,5.6,0,0,0-.66,2.22,3.44,3.44,0,0,1-2.08.17,2.81,2.81,0,0,1-1.62-1.39c-1-1.69-2.72-3.07-4.66-2.89l.22,2.52c.9-.08,1.8.88,2.27,1.66a5.19,5.19,0,0,0,5.82,2.6v3.42a19.06,19.06,0,1,1,12.66,0Z" transform="translate(-710 -376.64)"/></svg>