<?xml version="1.0" encoding="utf-8"?>
<svg version="1.1" xmlns="http://www.w3.org/2000/svg" xmlns:xlink="http://www.w3.org/1999/xlink" height="850.8422838106467" width="690.4399691799758">
  <defs>
    <linearGradient id="linearGradient-2" x1="0.87" y1="0.16" x2="0.26" y2="1.04">
      <stop offset="0" stop-color="rgb(41,131,221)" stop-opacity="1"/>
      <stop offset="1" stop-color="rgb(40,122,205)" stop-opacity="1"/>
    </linearGradient>
    <radialGradient id="radialGradient-4" cx="0.43" cy="0.53" r="1.0604244433244643">
      <stop offset="0" stop-color="rgb(42,134,227)" stop-opacity="1"/>
      <stop offset="1" stop-color="rgb(36,100,164)" stop-opacity="1"/>
    </radialGradient>
    <linearGradient id="linearGradient-6" x1="0.63" y1="0.48" x2="0.37" y2="0.35">
      <stop offset="0" stop-color="rgb(51,153,255)" stop-opacity="1"/>
      <stop offset="1" stop-color="rgb(15,182,255)" stop-opacity="1"/>
    </linearGradient>
    <linearGradient id="linearGradient-8" x1="0.56" y1="0.49" x2="0.28" y2="0.53">
      <stop offset="0" stop-color="rgb(51,153,255)" stop-opacity="1"/>
      <stop offset="1" stop-color="rgb(14,183,255)" stop-opacity="1"/>
    </linearGradient>
  </defs>
  <g opacity="1">
    <g opacity="1">
      <path fill="url(#linearGradient-2)" fill-opacity="1" opacity="1" fill-rule="evenodd" d="M433 110.14908722083271C433 110.14908722083271 453.2963105756353 67.67565726914194 464.00000000000006 57.434111375422134C474.7036894243648 47.19256548170234 474.65614381334626 37.93411137542202 477.50000000000017 33.93411137542208C479.0290984891951 33.93411137542208 482.44085115063723 44.091116206340004 483.4602501434339 50.23604374257188C484.47964913623053 56.380971278803756 493.14454057500194 99.90754132711291 483.4602501434338 115.26986016769261C473.7759597118657 130.63217900827232 445.742487409958 143.43411137542205 445.742487409958 143.43411137542205C445.742487409958 143.43411137542205 433 110.14908722083271 433 110.14908722083271Z"/>
    </g>
    <g opacity="1">
      <path fill="url(#radialGradient-4)" fill-opacity="1" opacity="1" fill-rule="evenodd" d="M457.16833898734427 351.02663638209253C457.16833898734427 351.02663638209253 454.835145909734 416.6982212384696 511.66833898734427 480.02663638209253C568.5015320649545 543.3550515257157 690.168338987344 550.5266363820926 690.168338987344 600.0266363820926C690.1683389873442 678.5266363820926 608.668338987344 698.5266363820925 608.668338987344 698.5266363820925C608.668338987344 698.5266363820925 421.00000000000006 706.5266363820926 287.0000000000001 600.0266363820928C217.36009242334603 544.6785008827371 210.98646123135285 431.97288517245386 244.73523920403167 350.2975917675709C275.9253218029458 274.8145876229132 345 227.93411137542216 345 227.93411137542216L457.16833898734427 351.02663638209253Z"/>
    </g>
    <g opacity="1">
      <path fill="url(#linearGradient-6)" fill-opacity="1" opacity="1" fill-rule="evenodd" d="M355.1683389873441 244.02663638209268C248.668338987344 373.5266363820927 259.16833898734444 449.52663638209276 270.66833898734444 512.0266363820926C282.16833898734444 574.5266363820929 324.16833898734444 593.5266363820929 324.16833898734444 593.5266363820929C324.16833898734444 593.5266363820929 272.66833898734444 561.0266363820929 305.16833898734455 474.0266363820927C337.66833898734444 387.02663638209253 399.0000000000001 372.43411137542216 481.0000000000002 342.4341113754221C511.5768977338888 331.24744147277994 551.4785141958187 334.3896664795502 572.460139030674 328.8099505151668C607.7462641628565 319.4261893779358 625.1695564724155 303.0781104046294 630.5000000000002 297.4341113754221C639.0000000000007 288.43411137542205 640.3081598681918 281.33819130951787 630.5000000000001 276.4341113754221C608.3256769906882 265.34694987076614 573.314828328524 243.95189122560737 552.2295775422298 216.24093598207588C541.935594082883 202.71223206431006 536.1402540894984 185.21224572720686 534.5000000000002 171.4341113754221C534.5000000000002 165.4341113754221 497.0462542244406 142.82454429198924 485.0000000000002 130.4341113754221C467.50000000000017 112.4341113754221 461.50000000000034 97.9341113754221 461.50000000000034 97.9341113754221C461.50000000000034 97.9341113754221 451.7184581585597 80.25733659614046 453.66833898734444 74.434111375422C459.4154131001057 57.27075122298117 443.05884744402846 -8.57653002030894 440.50000000000034 0.9341113754220921C432.0000000000002 32.52663638209272 412.71541941281737 40.59063805858461 398.7004136767089 56.119540540960834C382.3309900926983 74.25718438607788 374.5000000000002 88.93411137542202 374.5000000000002 88.93411137542202C374.5000000000002 88.93411137542202 284.5000000000002 88.9341113754221 240.9317993330771 183.3689283327189C251.66833898734444 178.93411137542208 259.16833898734444 175.70035717595528 270.8248302021143 175.70035717595525C231.50000000000023 207.4341113754221 212.49689767705055 239.7545692431739 198.66833898734438 285.0266363820927C145.9186148226543 457.7191857307808 251.66833898734438 547.0266363820929 251.66833898734438 547.0266363820929C251.66833898734438 547.0266363820929 211.67818702272587 446.257925114868 259.16833898734444 356.0266363820927C279.16833898734444 318.0266363820927 305.1683389873444 285.0266363820927 355.1683389873441 244.02663638209268Z"/>
    </g>
    <g opacity="1">
      <path fill="url(#linearGradient-8)" fill-opacity="1" opacity="1" fill-rule="evenodd" d="M690.4371283725263 601.503204652661C690.4371283725262 640.0032046526612 681.4371283725269 762.0032046526613 567.4371283725268 821.5032046526615C453.437128372527 881.0032046526615 328.4371283725267 835.5032046526615 258.93712837252656 811.5032046526613C189.43712837252656 787.5032046526615 145.93712837252656 755.0032046526612 74.93712837252649 791.5032046526612C101.4371283725265 751.0032046526612 151.9371283725263 707.0032046526613 236.43712837252653 707.0032046526612C151.43712837252656 698.5032046526612 37.43712837252646 733.5032046526613 15.437128372526445 821.5032046526615C-17.062871627473566 740.0032046526613 3.6683389873441086 652.503204652661 59.668338987344164 601.503204652661C115.66833898734421 550.503204652661 248.49999999999994 476.93411137542205 369.5 568.4341113754222C490.49999999999983 659.9341113754224 608.1683389873442 653.434111375422 669.1683389873441 618.434111375422C691.1683389873436 600.934111375422 690.4371283725264 601.5032046526609 690.4371283725263 601.503204652661Z"/>
    </g>
  </g>
</svg>