<svg id="Layer_1" data-name="Layer 1" xmlns="http://www.w3.org/2000/svg" viewBox="0 0 53.25 38.21"><defs><style>.cls-1{fill:#fff;}</style></defs><title>Open</title><g id="book"><g id="Group_18" data-name="Group 18"><path id="Path_16" data-name="Path 16" class="cls-1" d="M329,459.91h-3.51v-1.2a1,1,0,0,0-.74-1,28.76,28.76,0,0,0-7.44-.95c-4.13,0-9.76.93-13.92,5.16-4.13-4.27-9.79-5.16-13.91-5.16a28.76,28.76,0,0,0-7.44.95,1,1,0,0,0-.74,1v1.19h-3.48a1,1,0,0,0-1,1v33a1,1,0,0,0,1,1,1,1,0,0,0,.51-.13c.1-.05,10.43-5.7,24.84-2.07h.49c14.45-3.66,24.77,2,24.83,2.07a1,1,0,0,0,1.55-.89v-33A1,1,0,0,0,329,459.91Zm-50.15,32.35V462h2.46v25.89a1,1,0,0,0,1,1h.17a45,45,0,0,1,6.45-.51,26.46,26.46,0,0,1,8.82,1.33A37.88,37.88,0,0,0,278.84,492.26Zm10.1-5.93a43.91,43.91,0,0,0-5.61.36V459.53a28,28,0,0,1,6.12-.68c3.86,0,9.18.88,12.88,5l0,25.72C300.21,488.21,296,486.33,288.94,486.33Zm15.49-22.43c3.7-4.13,9-5,12.88-5a28,28,0,0,1,6.12.68v27.15a45.37,45.37,0,0,0-5.59-.37c-7,0-11.24,1.89-13.41,3.29ZM328,492.26a37.83,37.83,0,0,0-19-2.55,26.63,26.63,0,0,1,8.85-1.33,45.55,45.55,0,0,1,6.5.5,1,1,0,0,0,1.17-.86,1,1,0,0,0,0-.17V462H328Z" transform="translate(-276.77 -456.73)"/></g></g></svg>