<svg id="Layer_1" data-name="Layer 1" xmlns="http://www.w3.org/2000/svg" viewBox="0 0 53.29 56"><defs><style>.cls-1{fill:#fff;}</style></defs><title>Privacy</title><g id="surface1"><path id="Path_4" data-name="Path 4" class="cls-1" d="M596.73,376.58a7.38,7.38,0,0,0-6.11-1,5.69,5.69,0,0,0-1.49.66,38.39,38.39,0,0,0-5.72,5V364.84a5,5,0,0,0-1.85-3.75,6.59,6.59,0,0,0-4.32-1.48,7.09,7.09,0,0,0-2.08.35v-1.6a5.36,5.36,0,0,0-2-4.08,7.05,7.05,0,0,0-4.7-1.61c-3.5.05-6.37,2.48-6.47,5.44a7.3,7.3,0,0,0-2.44-.48,7.44,7.44,0,0,0-4.84,1.61,5,5,0,0,0-2,3.89v1.56a6.41,6.41,0,0,0-1.74-.24c-3.06,0-5.55,2.12-5.55,4.72v24a18.63,18.63,0,0,0,2.3,8,13.12,13.12,0,0,0,4.93,4.85c4.09,2.35,9.15,2.65,13.1,2.65,7.75,0,14.73-3.28,18.22-8.57.42-.58,1.54-2.07,2.75-3.69l3.23-4.3,1.44-1.9c1.56-2.07,3.22-4.09,4.94-6,.64-.7.83-.89.88-.94a4.56,4.56,0,0,0,1.46-2.64A4.14,4.14,0,0,0,596.73,376.58Zm-1.85,3.63a1.44,1.44,0,0,1-.49.86c-.14.13-.39.38-1.09,1.15-1.79,2-3.52,4.06-5.14,6.22l-1.43,1.9c-1,1.28-2.06,2.73-3.24,4.31l-2.8,3.75,0,.07c-2.8,4.26-8.5,6.91-14.87,6.91-3.4,0-7.72-.23-10.95-2.08s-5.1-5.25-5.52-10.28V369.17a1.72,1.72,0,0,1,3.39,0v9.11l0,.08s0,.06,0,.09a.19.19,0,0,1,0,.07l0,.08,0,.08,0,.07,0,.08,0,.07a.43.43,0,0,1,0,.07l0,.06.06.07,0,.06.06.06.07.06.06.05.07.05.08.05.07.05.08,0,.08,0,.08,0,.09,0,.08,0,.1,0,.09,0,.09,0h.8l.11,0h.07l.12,0,.06,0,.11,0,.06,0,.1-.05.05,0,.09-.06.06,0,.08-.06.06-.05.07-.06,0-.06.06-.06.06-.06,0-.07a.18.18,0,0,0,.05-.07.16.16,0,0,0,0-.07.25.25,0,0,0,0-.07s0-.05,0-.07l0-.08a.24.24,0,0,0,0-.08l0-.08s0-.05,0-.08,0-.05,0-.08v-.08a.28.28,0,0,0,0-.09l0-15a2,2,0,0,1,.8-1.54,3.1,3.1,0,0,1,2-.68,2.47,2.47,0,0,1,2.51,2.31L562,378a.28.28,0,0,0,0,.09v.08s0,.06,0,.09l0,.07a.93.93,0,0,0,0,.1.15.15,0,0,1,0,.06l.05.1,0,.05.06.1s0,0,0,0l.07.1,0,0a.39.39,0,0,0,.08.1l0,0,.1.1,0,0,.11.09,0,0,.12.08h0l.13.07,0,0,.14,0h0l.16,0h0l.16,0h0a2.56,2.56,0,0,0,.39,0h.38l.1,0,.09,0,.1,0,.07,0,.1,0,.07,0,.1-.05.06,0,.09-.06.06,0,.08-.07.06,0,.07-.07,0-.05.06-.06,0-.06,0-.07.05-.07a.25.25,0,0,1,0-.07l0-.07,0-.07,0-.08,0-.08a.24.24,0,0,0,0-.08s0-.05,0-.08,0-.06,0-.08a.28.28,0,0,1,0-.09V358.28a2.57,2.57,0,0,1,2.69-2.33,3,3,0,0,1,1.92.67,2.3,2.3,0,0,1,.86,1.74v19.76a.19.19,0,0,0,0,.08v.08s0,.06,0,.09,0,.05,0,.08a.31.31,0,0,0,0,.08.25.25,0,0,1,0,.07l0,.09a.21.21,0,0,1,0,.07l0,.09,0,0,.06.09,0,0,.07.09,0,0,.09.08,0,0,.1.07,0,0,.12.08,0,0,.13.07h0l.15.06h0l.16.05h0l.38.07h.58l.11,0h.08l.11,0,.06,0,.12,0,0,0,.11-.05,0,0,.1-.07.05,0,.1-.08,0,0,.08-.08,0,0,.08-.09,0,0a.36.36,0,0,0,.07-.1l0,0a.31.31,0,0,0,.05-.1l0,0,0-.1,0-.06a.87.87,0,0,0,0-.1s0,0,0-.06a.87.87,0,0,0,0-.1.17.17,0,0,0,0-.07s0-.06,0-.09V364.56a2.11,2.11,0,0,1,2.15-1.66,2.36,2.36,0,0,1,1.54.54,1.86,1.86,0,0,1,.7,1.4V384.3a2.41,2.41,0,0,0,2,2.24,2.91,2.91,0,0,0,3.07-1.08v0a34.09,34.09,0,0,1,6.74-6.51,1.82,1.82,0,0,1,.47-.21,3,3,0,0,1,2.4.4,1.17,1.17,0,0,1,.62,1.09Z" transform="translate(-545.45 -352.67)"/></g></svg>