<svg id="Layer_1" data-name="Layer 1" xmlns="http://www.w3.org/2000/svg" viewBox="0 0 52.18 59.11"><defs><style>.cls-1{fill:#fff;}</style></defs><title>Reward</title><g id="medal"><g id="Group_20" data-name="Group 20"><g id="Group_19" data-name="Group 19"><path id="Path_17" data-name="Path 17" class="cls-1" d="M268,477.41a1.17,1.17,0,0,0-.94-.78l-5-.73-2.24-4.55a1.17,1.17,0,0,0-1-.64h0a1.15,1.15,0,0,0-1,.64l-2.25,4.55-5,.73a1.15,1.15,0,0,0-.64,2l3.64,3.54-.86,5a1.14,1.14,0,0,0,.94,1.33,1.09,1.09,0,0,0,.73-.11L258.8,486l4.5,2.36a1.16,1.16,0,0,0,1.67-1.22l-.86-5,3.63-3.54A1.17,1.17,0,0,0,268,477.41Zm-6,3.5a1.16,1.16,0,0,0-.34,1l.57,3.29-3-1.56a1.19,1.19,0,0,0-1.07,0l-3,1.56.56-3.29a1.16,1.16,0,0,0-.33-1l-2.39-2.33,3.3-.48a1.13,1.13,0,0,0,.87-.63l1.48-3,1.48,3a1.14,1.14,0,0,0,.87.63l3.31.48Z" transform="translate(-232.71 -458.84)"/></g></g><g id="Group_22" data-name="Group 22"><g id="Group_21" data-name="Group 21"><path id="Path_18" data-name="Path 18" class="cls-1" d="M284.74,509.56,275.2,493a21,21,0,1,0-32.8,0l-9.54,16.59a1.16,1.16,0,0,0,.43,1.58,1.15,1.15,0,0,0,.73.14l7.44-1,2.86,7a1.15,1.15,0,0,0,1,.71h.08a1.17,1.17,0,0,0,1-.57L256,500.68h0a21.56,21.56,0,0,0,5.56,0h0l9.63,16.69a1.17,1.17,0,0,0,1,.57h.08a1.15,1.15,0,0,0,1-.71l2.85-7,7.45,1a1.15,1.15,0,0,0,1.15-1.72Zm-39.18,4.62-2.08-5.06,1.87-3a1.15,1.15,0,1,0-1.92-1.28l-.05.07L241.5,508l-5.47.73,8-13.9a21.1,21.1,0,0,0,9.6,5.44Zm13.24-15.63a18.7,18.7,0,1,1,18.7-18.7h0A18.72,18.72,0,0,1,258.8,498.55Zm17.31,9.4-1.89-3.08a1.15,1.15,0,1,0-2,1.21l1.86,3L272,514.18l-8.06-14a21,21,0,0,0,9.6-5.45l8,13.91Z" transform="translate(-232.71 -458.84)"/></g></g><g id="Group_24" data-name="Group 24"><g id="Group_23" data-name="Group 23"><path id="Path_19" data-name="Path 19" class="cls-1" d="M258.8,464.85a15,15,0,0,0-7.35,1.92,1.16,1.16,0,1,0,1.14,2h0a12.7,12.7,0,0,1,17.68,16.54,1.15,1.15,0,0,0,2.08,1,15,15,0,0,0-13.55-21.47Z" transform="translate(-232.71 -458.84)"/></g></g><g id="Group_26" data-name="Group 26"><g id="Group_25" data-name="Group 25"><path id="Path_20" data-name="Path 20" class="cls-1" d="M269.54,488.68a1.14,1.14,0,0,0-1.63,0h0l0,0a1.16,1.16,0,0,0,1.66,1.61l0,0a1.15,1.15,0,0,0,0-1.63Z" transform="translate(-232.71 -458.84)"/></g></g><g id="Group_28" data-name="Group 28"><g id="Group_27" data-name="Group 27"><path id="Path_21" data-name="Path 21" class="cls-1" d="M266.49,491.44a1.16,1.16,0,0,0-1.57-.46h0a12.7,12.7,0,0,1-17.68-16.38,1.15,1.15,0,1,0-2.08-1l0,0A15,15,0,0,0,266,493,1.16,1.16,0,0,0,266.49,491.44Z" transform="translate(-232.71 -458.84)"/></g></g><g id="Group_30" data-name="Group 30"><g id="Group_29" data-name="Group 29"><path id="Path_22" data-name="Path 22" class="cls-1" d="M249.45,469.57a1.16,1.16,0,0,0-1.63.06h0l0,0a1.15,1.15,0,1,0,1.69,1.57l0,0a1.17,1.17,0,0,0,0-1.64Z" transform="translate(-232.71 -458.84)"/></g></g></g></svg>