<svg id="Layer_1" data-name="Layer 1" xmlns="http://www.w3.org/2000/svg" viewBox="0 0 53.25 53.25"><defs><style>.cls-1{fill:#fff;}</style></defs><title>Decentralized</title><path id="Path_23" data-name="Path 23" class="cls-1" d="M268,487.49a.78.78,0,0,0,.78-.78v-5.63a.77.77,0,0,0-.5-.73L259,476.88a.86.86,0,0,0-.55,0l-9.24,3.47a.78.78,0,0,0-.51.73v2.5a.78.78,0,0,0,1.56,0h0V482.2l7.69,2.88v10.31l-7.69-2.88v-5.28a.78.78,0,0,0-1.56,0h0v5.82a.78.78,0,0,0,.51.73l9.24,3.47h0a.75.75,0,0,0,.55,0l9.25-3.47a.77.77,0,0,0,.5-.73v-2.7a.78.78,0,0,0-1.56,0v2.16l-7.68,2.89V485.09l7.68-2.89v4.51a.78.78,0,0,0,.78.78Zm-9.24-3.78-7-2.63,7-2.64,7,2.64Z" transform="translate(-232.1 -460.44)"/><path id="Path_24" data-name="Path 24" class="cls-1" d="M258,468.23v5.6a.78.78,0,0,0,1.56,0h0v-5.6a3.94,3.94,0,1,0-1.56,0Zm.78-6.23a2.38,2.38,0,1,1-2.37,2.37h0A2.38,2.38,0,0,1,258.73,462Z" transform="translate(-232.1 -460.44)"/><path id="Path_25" data-name="Path 25" class="cls-1" d="M273.73,496.67a5.36,5.36,0,0,0-3.22,1.08l-1.87-1.87a.78.78,0,0,0-1.1,1.1l1.87,1.87a5.39,5.39,0,1,0,4.33-2.18Zm0,9.25a3.85,3.85,0,1,1,3.85-3.85h0A3.86,3.86,0,0,1,273.73,505.92Z" transform="translate(-232.1 -460.44)"/><path id="Path_26" data-name="Path 26" class="cls-1" d="M243.72,477.46a5.29,5.29,0,0,0,3.23-1.07l1.87,1.87a.79.79,0,0,0,1.1.08.78.78,0,0,0,.08-1.1.3.3,0,0,0-.08-.08l-1.87-1.87a5.39,5.39,0,1,0-4.33,2.18Zm0-9.24a3.84,3.84,0,1,1-3.84,3.84h0A3.84,3.84,0,0,1,243.72,468.22Z" transform="translate(-232.1 -460.44)"/><path id="Path_27" data-name="Path 27" class="cls-1" d="M259.51,505.91v-5.6a.78.78,0,0,0-.78-.78.77.77,0,0,0-.78.77h0v5.6a3.93,3.93,0,1,0,1.56,0Zm-.78,6.22a2.37,2.37,0,1,1,2.37-2.37,2.37,2.37,0,0,1-2.37,2.37Z" transform="translate(-232.1 -460.44)"/><path id="Path_28" data-name="Path 28" class="cls-1" d="M281.42,483.14a3.92,3.92,0,0,0-3.85,3.15H272a.78.78,0,0,0-.78.78.77.77,0,0,0,.77.78h5.61a3.93,3.93,0,1,0,3.85-4.71Zm0,6.3a2.38,2.38,0,1,1,2.37-2.38,2.38,2.38,0,0,1-2.37,2.38Z" transform="translate(-232.1 -460.44)"/><path id="Path_29" data-name="Path 29" class="cls-1" d="M239.89,487.85h5.6a.78.78,0,1,0,0-1.56h-5.6a3.93,3.93,0,1,0,0,1.56ZM236,489.44a2.37,2.37,0,1,1,2.37-2.38h0A2.37,2.37,0,0,1,236,489.44Z" transform="translate(-232.1 -460.44)"/><path id="Path_30" data-name="Path 30" class="cls-1" d="M268.09,478.49a.78.78,0,0,0,.55-.23l1.87-1.87a5.41,5.41,0,1,0-1.1-1.1l-1.87,1.87a.78.78,0,0,0,.55,1.33Zm5.64-10.27a3.84,3.84,0,1,1-3.84,3.84h0A3.84,3.84,0,0,1,273.73,468.22Z" transform="translate(-232.1 -460.44)"/><path id="Path_31" data-name="Path 31" class="cls-1" d="M248.82,495.88,247,497.75a5.41,5.41,0,1,0,1.1,1.1l1.87-1.87a.78.78,0,0,0-1.1-1.1Zm-5.1,10a3.85,3.85,0,1,1,3.84-3.85h0a3.86,3.86,0,0,1-3.84,3.85Z" transform="translate(-232.1 -460.44)"/></svg>