<svg id="Layer_1" data-name="Layer 1" xmlns="http://www.w3.org/2000/svg" viewBox="0 0 36 36"><defs><style>.cls-1{fill:#fff;}</style></defs><title>design</title><g id="Group_32" data-name="Group 32"><g id="Group_31" data-name="Group 31"><path id="Path_32" data-name="Path 32" class="cls-1" d="M303.4,457.9a4.45,4.45,0,1,0,4.44,4.45A4.45,4.45,0,0,0,303.4,457.9Zm0,6.78a2.34,2.34,0,1,1,2.33-2.33h0A2.33,2.33,0,0,1,303.4,464.68Z" transform="translate(-285.4 -457.9)"/></g></g><g id="Group_34" data-name="Group 34"><g id="Group_33" data-name="Group 33"><path id="Path_33" data-name="Path 33" class="cls-1" d="M303.4,471.46a4.45,4.45,0,1,0,4.44,4.44A4.44,4.44,0,0,0,303.4,471.46Zm0,6.78a2.34,2.34,0,1,1,2.33-2.34h0A2.34,2.34,0,0,1,303.4,478.24Z" transform="translate(-285.4 -457.9)"/></g></g><g id="Group_36" data-name="Group 36"><g id="Group_35" data-name="Group 35"><path id="Path_34" data-name="Path 34" class="cls-1" d="M303.4,485a4.45,4.45,0,1,0,4.44,4.45A4.45,4.45,0,0,0,303.4,485Zm0,6.78a2.34,2.34,0,1,1,2.33-2.33A2.33,2.33,0,0,1,303.4,491.79Z" transform="translate(-285.4 -457.9)"/></g></g><g id="Group_38" data-name="Group 38"><g id="Group_37" data-name="Group 37"><path id="Path_35" data-name="Path 35" class="cls-1" d="M289.84,457.9a4.45,4.45,0,1,0,4.44,4.45h0A4.44,4.44,0,0,0,289.84,457.9Zm0,6.78a2.34,2.34,0,1,1,2.34-2.33A2.33,2.33,0,0,1,289.84,464.68Z" transform="translate(-285.4 -457.9)"/></g></g><g id="Group_40" data-name="Group 40"><g id="Group_39" data-name="Group 39"><path id="Path_36" data-name="Path 36" class="cls-1" d="M289.84,471.46a4.45,4.45,0,1,0,4.45,4.44A4.44,4.44,0,0,0,289.84,471.46Zm0,6.78a2.34,2.34,0,1,1,2.34-2.34h0A2.36,2.36,0,0,1,289.84,478.24Z" transform="translate(-285.4 -457.9)"/></g></g><g id="Group_42" data-name="Group 42"><g id="Group_41" data-name="Group 41"><path id="Path_37" data-name="Path 37" class="cls-1" d="M289.84,485a4.45,4.45,0,1,0,4.45,4.45A4.44,4.44,0,0,0,289.84,485Zm0,6.78a2.34,2.34,0,1,1,2.34-2.33A2.33,2.33,0,0,1,289.84,491.79Z" transform="translate(-285.4 -457.9)"/></g></g><g id="Group_44" data-name="Group 44"><g id="Group_43" data-name="Group 43"><path id="Path_38" data-name="Path 38" class="cls-1" d="M317,457.9a4.45,4.45,0,1,0,4.45,4.45A4.44,4.44,0,0,0,317,457.9Zm0,6.78a2.34,2.34,0,1,1,2.34-2.33A2.33,2.33,0,0,1,317,464.68Z" transform="translate(-285.4 -457.9)"/></g></g><g id="Group_46" data-name="Group 46"><g id="Group_45" data-name="Group 45"><path id="Path_39" data-name="Path 39" class="cls-1" d="M317,471.46a4.45,4.45,0,1,0,4.45,4.44A4.44,4.44,0,0,0,317,471.46Zm0,6.78a2.34,2.34,0,1,1,2.34-2.34A2.33,2.33,0,0,1,317,478.24Z" transform="translate(-285.4 -457.9)"/></g></g><g id="Group_48" data-name="Group 48"><g id="Group_47" data-name="Group 47"><path id="Path_40" data-name="Path 40" class="cls-1" d="M317,485a4.45,4.45,0,1,0,4.45,4.45A4.44,4.44,0,0,0,317,485Zm0,6.78a2.34,2.34,0,1,1,2.34-2.33A2.33,2.33,0,0,1,317,491.79Z" transform="translate(-285.4 -457.9)"/></g></g></svg>