<svg id="Layer_1" data-name="Layer 1" xmlns="http://www.w3.org/2000/svg" viewBox="0 0 39.78 38.8"><defs><style>.cls-1{fill:#09f;}</style></defs><title>github</title><path id="Path_3" data-name="Path 3" class="cls-1" d="M510.44,364.08a19.89,19.89,0,0,0-6.27,38.76c1,.18,1.35-.44,1.35-.95s0-1.73,0-3.38c-5.52,1.19-6.7-2.68-6.7-2.68a5.27,5.27,0,0,0-2.21-2.91c-1.81-1.22.14-1.22.14-1.22a4.2,4.2,0,0,1,3,2.06,4.24,4.24,0,0,0,5.77,1.66h0a4.14,4.14,0,0,1,1.26-2.65c-4.42-.51-9.06-2.21-9.06-9.83a7.68,7.68,0,0,1,2.05-5.35,7.19,7.19,0,0,1,.2-5.26s1.68-.53,5.46,2a19.08,19.08,0,0,1,9.95,0c3.8-2.59,5.46-2,5.46-2a7.19,7.19,0,0,1,.2,5.26,7.65,7.65,0,0,1,2,5.34c0,7.65-4.64,9.33-9.08,9.82a4.8,4.8,0,0,1,1.34,3.69c0,2.65,0,4.8,0,5.46s.36,1.14,1.37.95a19.89,19.89,0,0,0-6.28-38.76Z" transform="translate(-490.56 -364.08)"/></svg>