<svg id="Layer_1" data-name="Layer 1" xmlns="http://www.w3.org/2000/svg" viewBox="0 0 47.25 63"><defs><style>.cls-1{fill:#fff;}</style></defs><title>Security</title><g id="Group_16" data-name="Group 16"><path id="Path_11" data-name="Path 11" class="cls-1" d="M453.44,468.85l-.82,7.45a1.31,1.31,0,0,0,1.16,1.45h5.39a1.31,1.31,0,0,0,1.3-1.32v-.14l-.83-7.45a5.25,5.25,0,1,0-6.2,0Zm3.1-6.84a2.62,2.62,0,0,1,1.14,5,1.31,1.31,0,0,0-.74,1.32l.76,6.82h-2.31l.75-6.82a1.29,1.29,0,0,0-.73-1.32,2.63,2.63,0,0,1-1.24-3.49,2.6,2.6,0,0,1,2.37-1.49Z" transform="translate(-432.92 -425.26)"/><path id="Path_12" data-name="Path 12" class="cls-1" d="M478.86,448.88h-3.94v-5.25a18.38,18.38,0,0,0-36.75,0v5.25h-3.94a1.31,1.31,0,0,0-1.31,1.31h0V483a5.26,5.26,0,0,0,5.25,5.25h36.75a5.26,5.26,0,0,0,5.25-5.25V450.2a1.32,1.32,0,0,0-1.31-1.32Zm-38.06-5.25a15.75,15.75,0,0,1,31.5,0v5.25h-2.63v-5.25a13.13,13.13,0,0,0-26.25,0v5.25H440.8Zm26.25,0v5.25h-21v-5.25a10.5,10.5,0,0,1,21,0ZM477.55,483a2.63,2.63,0,0,1-2.63,2.62H438.17a2.62,2.62,0,0,1-2.62-2.62v-31.5h42Z" transform="translate(-432.92 -425.26)"/></g></svg>