<svg id="Layer_1" data-name="Layer 1" xmlns="http://www.w3.org/2000/svg" viewBox="0 0 60 42.04"><defs><style>.cls-1{fill:#fff;}</style></defs><title>UI</title><g id="lotus-flower"><path id="Path_13" data-name="Path 13" class="cls-1" d="M485.76,463.09a41.75,41.75,0,0,0-9.33-.82c1.8-4.56,2.17-10,1.08-16.37a1,1,0,0,0-1.15-.82l-.07,0a35.26,35.26,0,0,0-9.55,4.3,31.2,31.2,0,0,0-9.52-13.4,1,1,0,0,0-1.32.09c-4.44,4.51-7.4,9.14-8.86,13.8a35.44,35.44,0,0,0-10.27-4.8,1,1,0,0,0-1.21.73.64.64,0,0,1,0,.07c-1.08,6.33-.71,11.82,1.09,16.37a42.36,42.36,0,0,0-9.33.83,1,1,0,0,0-.75,1.2s0,.1.05.15c4.35,10.88,12.82,13.38,19.7,13.38a32.94,32.94,0,0,0,10.23-1.69,33,33,0,0,0,10.23,1.7c6.88,0,15.35-2.51,19.7-13.39a1,1,0,0,0-.56-1.3l-.14-.05Zm-11.55-.72a26.49,26.49,0,0,0-10.49,2.9,1.14,1.14,0,0,0-.47.26h0a17.2,17.2,0,0,0-5.18,4.61,24.24,24.24,0,0,0-.51-5.5c1.2-5.07,4.28-9.4,9.2-12.85a34.69,34.69,0,0,1,9-4.44C476.58,453.23,476.06,458.27,474.21,462.37Zm-17.53-24.23c1.76,1.56,6.44,6.17,8.34,12.45a24.18,24.18,0,0,0-8.49,10.68,23.84,23.84,0,0,0-7.78-10.14C450,446.8,452.61,442.43,456.68,438.14Zm-19.34,9.2a34.57,34.57,0,0,1,9.67,5h0a21.42,21.42,0,0,1,8.49,12.35,24.13,24.13,0,0,0-.51,5.5c-4.05-5.44-10.49-7.32-16.14-7.77-1.85-4.1-2.37-9.14-1.51-15Zm7.58,28.49c-7.48-.41-12.86-4.11-16-11,4.53-.77,20.88-2.6,26.27,9.65a30.08,30.08,0,0,1-10.28,1.37Zm23.21,0a30.33,30.33,0,0,1-10.28-1.37c5.39-12.25,21.74-10.42,26.28-9.65-3.14,6.9-8.51,10.61-16,11Z" transform="translate(-426.53 -435.79)"/><rect id="Rectangle_4" data-name="Rectangle 4" class="cls-1" x="29" y="7.28" width="2" height="2"/><rect id="Rectangle_5" data-name="Rectangle 5" class="cls-1" x="29" y="11.28" width="2" height="2"/><rect id="Rectangle_6" data-name="Rectangle 6" class="cls-1" x="29" y="15.28" width="2" height="2"/><path id="Path_14" data-name="Path 14" class="cls-1" d="M438.53,451.07a15.23,15.23,0,0,0,2.17,7.55l1.66-1.11a13.32,13.32,0,0,1-1.83-6.44Z" transform="translate(-426.53 -435.79)"/><path id="Path_15" data-name="Path 15" class="cls-1" d="M474.53,451.07h-2a13.29,13.29,0,0,1-1.83,6.44l1.66,1.11A15.23,15.23,0,0,0,474.53,451.07Z" transform="translate(-426.53 -435.79)"/></g></svg>